<?xml version="1.0" encoding="UTF-8" standalone="no"?>
<!-- Created with Inkscape (http://www.inkscape.org/) -->

<svg
   width="2857"
   height="2322"
   viewBox="0 0 798.14992 648.68888"
   version="1.1"
   id="svg1"
   sodipodi:docname="checkpoints.svg"
   inkscape:version="1.3.2 (091e20e, 2023-11-25, custom)"
   xmlns:inkscape="http://www.inkscape.org/namespaces/inkscape"
   xmlns:sodipodi="http://sodipodi.sourceforge.net/DTD/sodipodi-0.dtd"
   xmlns="http://www.w3.org/2000/svg"
   xmlns:svg="http://www.w3.org/2000/svg">
  <sodipodi:namedview
     id="namedview1"
     pagecolor="#ffffff"
     bordercolor="#000000"
     borderopacity="0.25"
     inkscape:showpageshadow="2"
     inkscape:pageopacity="0.0"
     inkscape:pagecheckerboard="0"
     inkscape:deskcolor="#d1d1d1"
     inkscape:zoom="0.21053459"
     inkscape:cx="1538.9395"
     inkscape:cy="1094.832"
     inkscape:window-width="1350"
     inkscape:window-height="729"
     inkscape:window-x="0"
     inkscape:window-y="0"
     inkscape:window-maximized="0"
     inkscape:current-layer="svg1"
     showgrid="false" />
  <defs
     id="defs1" />
  <path
     style="fill:#000000;stroke-width:0.279366"
     id="path8"
     d="m 58.563517,181.15412 c 5.365191,-0.0474 10.730767,-0.0532 16.09615,-0.0644 7.002068,-0.0162 14.004117,0.009 21.006169,0.0196 4.161269,0.0155 8.322464,0.0274 12.483754,0.0153 5.82952,-0.035 11.6592,-0.0132 17.48879,-0.0147 4.75236,0.001 9.50472,0.009 14.25708,0.0192 4.2891,0.0131 8.57819,-0.008 12.86727,-0.0212 5.31835,-0.0186 10.63666,0.0114 15.95499,0.0183 0.51699,-0.36083 4.96576,1.02541 4.74039,0.86936 -4.5645,-3.16052 -2.18626,-1.06077 -1.48901,0.41117 0.91705,3.71398 0.67376,7.65448 0.66598,11.45798 -0.11577,6.23691 -0.01,12.45874 0.35169,18.68515 0.32442,7.58896 1.11748,15.14323 1.65218,22.71818 0.17101,1.15811 0.30066,2.32307 0.51301,3.47432 0.20553,1.11421 0.49321,2.21169 0.73981,3.31753 0.26568,1.31847 0.55552,2.6323 0.79704,3.9554 0.81371,4.45769 1.30503,8.92426 1.73581,13.43163 0.9824,8.72864 1.58558,17.4892 1.93006,26.2642 0.37379,5.30422 0.1227,10.57145 -0.38485,15.851 -0.33373,4.27923 -1.15772,8.50836 -2.04686,12.70252 -0.6553,4.32758 -1.62457,8.6341 -1.82321,13.01512 0.261,0.49951 0.33056,1.1625 0.78299,1.49858 1.68117,1.24882 3.52629,2.29667 5.44772,3.12977 1.02358,0.4438 2.17748,0.49934 3.28218,0.65528 4.80337,0.67811 9.70419,0.73272 14.54263,0.90199 7.23231,0.26861 14.47239,0.0384 21.70281,0.3037 1.54562,0.11862 3.09412,0.20447 4.63687,0.35588 5.54643,0.54446 11.05484,1.37616 16.61407,1.81533 5.20927,0.4115 9.6415,0.58206 14.87901,0.83379 12.07025,0.49915 24.14938,0.73594 36.22879,0.85151 6.59953,0.0692 13.19909,0.035 19.79865,0.003 11.61748,-0.53823 23.23722,-0.947 34.86496,-1.17597 5.08019,-0.0502 10.1615,-0.181 15.24237,-0.15829 3.04861,0.0137 4.8857,-0.18259 7.69291,0.92127 -0.763,-0.30077 -1.59236,-1.33515 -2.28896,-0.90233 -0.56337,0.35005 0.63469,1.1741 0.83293,1.80703 0.2523,0.80547 0.38841,1.64505 0.50996,2.4803 0.47962,3.2956 0.43235,6.66948 0.48003,9.989 -0.007,6.8378 -0.21595,13.66487 0.13888,20.49597 0.23846,5.3464 1.81725,10.52605 2.98179,15.72495 0.9773,4.99999 2.08424,9.96416 2.6466,15.03198 0.69188,6.33299 2.34626,12.49226 3.35503,18.77586 0.75571,5.03588 0.99367,10.12273 1.09981,15.20689 0.27626,4.55367 -0.17592,9.06418 -0.55645,13.59193 -0.66235,5.11797 -0.98448,10.27158 -2.95097,15.08428 -1.53864,3.66775 -4.39701,5.76442 -7.81938,7.50739 -3.32013,1.28313 -6.56196,2.73223 -9.93754,3.86514 -5.79733,1.65204 -11.76837,2.4841 -17.68882,3.53633 -4.73769,0.58737 -9.33341,1.71012 -13.96706,2.81289 -4.08367,0.9259 -8.25207,1.28972 -12.42535,1.471 1.1687,1.23184 -3.59369,-0.93761 -2.71891,-0.62265 1.02212,0.36801 1.94081,1.212 3.02713,1.20737 0.41955,-0.003 0.10876,-0.84995 0.30353,-1.22156 0.7332,-1.3989 1.86343,-1.97152 3.10932,-2.91477 7.52002,-4.60633 16.45058,-4.85109 25.0002,-5.36093 5.46597,-0.12038 10.94764,-0.54563 16.41853,-0.32529 0.97373,0.0392 1.94797,0.12409 2.91047,0.2766 0.42366,0.0671 1.60309,0.59035 1.22957,0.37946 -1.23818,-0.69912 -2.56112,-1.2362 -3.8417,-1.8543 -3.49002,1.83583 -7.39274,2.51679 -11.26168,3.00375 -4.59837,0.45143 -9.2244,0.4492 -13.83993,0.47085 -5.8073,-0.57673 -11.53987,-1.66064 -17.35005,-2.22013 -5.5623,-0.391 -11.15077,-0.53867 -16.72573,-0.41201 -1.44577,0.30353 -2.5676,0.22352 -3.47336,1.64391 -2.35266,3.68934 -2.22135,12.20744 -2.43292,16.43565 -0.47612,8.3023 -0.007,16.63139 -0.43519,24.93097 -0.37014,4.07263 -0.79282,8.13926 -0.96723,12.22617 -0.0288,4.71942 -0.56686,9.41088 -0.92473,14.11261 -0.42489,6.46856 -1.61664,12.76224 -3.15027,19.04506 -1.46464,5.5474 -2.20848,11.21217 -2.55531,16.92619 -0.0788,3.66364 -0.51951,7.36002 0.0938,10.99534 4.2531,2.27756 3.21766,3.41377 4.45645,1.18669 0,0 -3.60667,-2.0765 -3.60667,-2.0765 v 0 c -0.94912,1.66516 -0.48985,0.43326 2.87501,2.7001 -0.76686,-3.59712 -0.26207,-7.30756 -0.2359,-10.95329 0.33122,-5.69701 1.03215,-11.35462 2.46645,-16.89183 1.53123,-6.29762 2.78665,-12.59412 3.23012,-19.07693 0.34973,-4.69906 0.9575,-9.38057 0.98149,-14.09725 0.18958,-4.09521 0.56751,-8.1739 0.90132,-12.25908 0.35052,-8.32598 -0.19885,-16.67666 0.28823,-25.00419 0.22413,-4.05483 0.1572,-12.51003 2.47697,-16.02426 0.83061,-1.25829 1.99535,-1.19421 3.29016,-1.4496 5.56271,-0.14438 11.13778,0.0246 16.68611,0.44388 5.81411,0.57541 11.5578,1.6479 17.37508,2.18789 4.63466,-0.014 9.28013,-0.004 13.89516,-0.49322 3.96152,-0.5232 7.97814,-1.2481 11.52079,-3.19523 -1.00555,-0.93839 -1.90623,-2.00356 -3.01666,-2.81515 -0.32398,-0.23676 -0.77856,-0.20751 -1.17755,-0.25023 -0.9399,-0.10062 -1.88511,-0.1594 -2.83018,-0.1789 -5.44561,-0.11222 -10.89194,0.27448 -16.33221,0.41472 -8.6848,0.48313 -17.71619,0.69364 -25.34488,5.40451 -0.36988,0.27596 -4.70224,3.41841 -3.7896,4.59004 1.94503,2.49701 4.00184,3.47619 6.79894,3.50667 4.17798,-0.21537 8.34708,-0.61302 12.43231,-1.55937 4.61792,-1.1095 9.21875,-2.16098 13.93063,-2.80892 5.9428,-1.04625 11.91744,-1.974 17.74748,-3.56726 3.40634,-1.11866 6.69105,-2.54796 10.01305,-3.8919 3.47216,-1.82904 6.37657,-4.02568 7.9377,-7.77296 1.96677,-4.86089 2.27845,-10.04537 2.98425,-15.20323 0.42561,-4.53845 0.87081,-9.05522 0.59091,-13.62356 -0.0964,-5.11226 -0.36379,-10.22132 -1.12867,-15.28385 -1.00396,-6.26885 -2.67267,-12.41052 -3.31675,-18.73342 -0.52345,-5.09232 -1.6938,-10.05977 -2.64822,-15.08325 -1.14543,-5.18937 -2.72654,-10.34804 -3.02582,-15.67321 -0.39371,-6.83219 -0.22277,-13.66074 -0.18829,-20.50161 -0.0283,-3.33111 0.0263,-6.70248 -0.3786,-10.01694 -0.0695,-0.56882 -0.53292,-3.89233 -1.17795,-4.49685 -1.38373,-1.29682 -3.15142,-2.11056 -4.72713,-3.16584 -2.56313,-0.8189 -4.94451,-0.72375 -7.64174,-0.70649 -5.04267,0.0323 -10.08451,0.18802 -15.12682,0.24696 -11.66606,0.25286 -23.32609,0.63626 -34.98604,1.07883 -6.59707,-0.0187 -13.19389,-0.0123 -19.79099,-1.9e-4 -12.00654,-0.0396 -24.01495,-0.18556 -36.01142,-0.71297 -12.17253,-0.62701 -24.2642,-1.83024 -36.37255,-3.17838 -7.20276,-0.31379 -14.41539,0.0344 -21.62204,-0.24241 -3.56417,-0.12982 -6.52634,-0.19145 -10.08241,-0.50683 -1.50949,-0.13387 -3.02145,-0.2733 -4.51581,-0.52498 -1.10956,-0.18687 -2.17073,-0.96348 -3.28219,-0.78835 -0.59999,0.0946 0.90402,1.28786 1.47234,1.07355 0.49008,-0.1848 -0.59718,-0.86064 -0.89577,-1.29095 0.0993,-4.37055 1.12548,-8.6508 1.77227,-12.96162 0.8855,-4.21226 1.72815,-8.45358 2.05146,-12.75202 0.50191,-5.30983 0.76347,-10.60701 0.33577,-15.939 -0.43424,-8.79122 -1.02656,-17.57333 -2.00534,-26.32301 -0.40527,-4.51257 -0.89325,-8.97664 -1.66985,-13.44311 -2.16227,-12.43586 0.56216,3.57434 -1.51003,-7.24072 -0.21898,-1.14287 -0.35504,-2.30007 -0.53256,-3.45011 -0.57669,-7.57182 -1.32448,-15.13013 -1.66601,-22.71779 -0.34475,-6.20589 -0.41344,-12.40333 -0.27107,-18.61808 0.007,-3.84269 0.25415,-7.79067 -0.51101,-11.56942 -1.60075,-4.06382 -6.32666,-5.2798 -10.31049,-5.40279 -5.30154,0.007 -10.60306,0.037 -15.90463,0.0183 -4.30851,-0.013 -8.61704,-0.0342 -12.92558,-0.0212 -4.73469,0.01 -9.46939,0.018 -14.20408,0.0192 -5.84307,-10e-4 -11.68622,0.0202 -17.52922,-0.0147 -4.14722,-0.0119 -8.294346,-5.6e-4 -12.441549,0.0153 -6.984077,0.0105 -13.968154,0.0359 -20.952248,0.0196 -5.424453,-0.0113 -10.849084,-0.0173 -16.273347,-0.0644 z" />
  <path
     style="fill:#000000;stroke-width:0.279366"
     id="path9"
     d="m 304.90361,591.89787 c 5.14838,0.10565 10.26942,-0.21288 15.37794,-0.83536 5.96582,-0.84442 11.9632,-1.38589 17.97922,-1.68539 3.96706,-0.17779 7.93862,-0.18316 11.90872,-0.19199 6.47848,0.18374 12.74886,1.71962 19.00379,3.26803 6.5717,1.60622 13.14975,3.16215 19.77073,4.5534 5.10085,0.87715 10.25138,1.4527 15.38846,2.09078 5.4158,1.27536 10.87624,2.2668 16.36839,3.16955 5.86672,1.05642 11.81644,1.35328 17.76298,1.49327 3.18511,0.009 6.37302,0.13683 9.55838,0.093 1.34376,-0.0184 3.30454,0.0114 4.63282,-0.52753 0.48666,-0.19743 0.86115,-0.60139 1.29173,-0.90208 1.16818,-2.07843 -0.16627,-3.65534 -1.12827,-5.48186 -0.94577,-1.79572 -0.76985,-1.55487 -1.26464,-3.45599 -0.58287,-3.18475 1.43896,-4.98242 3.96991,-6.47577 3.61673,-1.50349 7.55739,-1.43608 11.38675,-1.1187 6.31679,0.26554 12.25184,2.7264 18.16092,4.76854 7.02564,2.25887 14.06171,4.46777 21.21846,6.2756 5.7575,1.55339 11.72306,1.72034 17.64532,1.86628 7.29755,0.0457 14.60078,0.17852 21.89272,-0.14412 6.1876,-0.1505 12.30405,-1.04539 18.43098,-1.83251 3.26392,-0.46143 6.55547,-0.5851 9.84649,-0.64408 3.58771,-0.0329 7.17569,-0.0279 10.76351,-0.0184 3.7636,0.007 7.52717,0.0114 11.29074,0 6.189,-0.0137 12.37797,-0.0246 18.56697,-0.0308 9.35453,-0.0218 18.70903,-0.0319 28.06359,-0.0263 9.43568,-0.0131 18.87134,0.005 28.30703,0.0168 6.02805,0.009 12.05614,0.0229 18.0842,0.0408 4.80658,-0.40734 9.61367,-0.73247 14.435,-0.90433 7.98357,-0.20615 15.97071,-0.21011 23.95643,-0.21489 5.10187,0.004 10.20369,0.0305 15.30551,0.0541 2.92605,0.008 5.85211,0.006 8.77819,0.006 2.55855,0.29825 4.88333,-0.52208 7.28976,-1.25229 0,0 -3.39578,-2.31765 -3.39578,-2.31765 v 0 c -2.38132,0.72096 -4.69998,1.42145 -7.22414,1.15038 -2.92326,-9e-5 -5.84652,-0.004 -8.76978,0 -5.05383,0.0162 -10.10762,0.036 -15.16144,0.0517 -8.00695,0.0204 -16.01494,0.0165 -24.02049,0.18371 -4.83645,0.14379 -9.65641,0.48185 -14.47942,0.85595 -5.99057,0.0179 -11.98116,0.0316 -17.97176,0.0408 -9.42035,0.012 -18.84067,0.03 -28.26101,0.0168 -9.37864,0.006 -18.7572,-0.004 -28.13581,-0.0263 -6.21794,-0.006 -12.43588,-0.0168 -18.65383,-0.0325 -3.77091,-0.0126 -7.54183,-0.0126 -11.31274,-0.0176 -3.59221,0 -7.18461,-0.0251 -10.77665,0.0187 -3.29175,0.0574 -6.58218,0.20385 -9.84146,0.70515 -6.07994,0.83578 -12.15566,1.72014 -18.30292,1.87941 -7.30574,0.28573 -14.61994,0.15954 -21.92962,0.0843 -5.90221,-0.15935 -11.8369,-0.38997 -17.57545,-1.92414 -7.14759,-1.80085 -14.16726,-4.03153 -21.18165,-6.29004 -5.96019,-2.06056 -11.94635,-4.4911 -18.31842,-4.75932 -3.89618,-0.28037 -7.92464,-0.30892 -11.5685,1.30185 -2.6387,1.62748 -4.7698,3.58651 -4.20092,6.94382 0.4352,1.84521 0.31663,1.84217 1.21153,3.56474 0.83226,1.60197 2.30234,3.03702 1.40261,4.92741 -0.39064,0.263 -0.73244,0.6198 -1.17191,0.78899 -1.30308,0.50171 -3.21501,0.47844 -4.52303,0.49948 -3.17989,0.0511 -6.36226,-0.0673 -9.54165,-0.0917 -5.93234,-0.17432 -11.86679,-0.4873 -17.72161,-1.53056 -5.51304,-0.91258 -10.97661,-2.00446 -16.43113,-3.19632 -5.12313,-0.6317 -10.26149,-1.20049 -15.34431,-2.09963 -6.59261,-1.37708 -13.14406,-2.91745 -19.68802,-4.50842 -6.31254,-1.56191 -12.64759,-3.11474 -19.18647,-3.28253 -3.96421,0 -7.9302,0.0154 -11.88978,0.23157 -6.00624,0.33778 -11.99135,0.91177 -17.95136,1.73746 -5.14744,0.59533 -10.31046,0.88596 -15.49358,0.69309 z" />
  <path
     style="fill:#000000;stroke-width:0.279366"
     id="path10"
     d="m 760.5237,581.51935 c -0.25394,-5.80747 -0.0785,-11.54946 0.66961,-17.30971 1.08099,-7.90929 2.97598,-15.66344 5.445,-23.24435 2.60146,-7.24534 4.48944,-14.72558 5.97668,-22.27193 0.94294,-4.55647 1.12392,-9.20007 1.16275,-13.83596 0.0176,-7.45685 1.84248,-14.78419 3.02084,-22.12169 1.51906,-9.62194 1.86902,-19.3518 2.085,-29.07165 0.4138,-9.3059 0.99058,-18.60148 1.26207,-27.9134 0.17563,-8.21732 0.19337,-16.43686 0.25651,-24.65552 -0.0694,-3.59441 0.24076,-7.21679 -0.14952,-10.80209 -0.16859,-1.54881 -0.96873,-5.93671 -1.2251,-7.39285 -1.43935,-7.58226 -2.036,-15.28436 -2.4175,-22.98149 -0.24204,-5.94864 -0.24559,-11.90364 -0.23643,-17.85616 0.23132,-9.15453 -0.6483,-18.26919 -1.43843,-27.37623 -0.73909,-7.92166 -0.92772,-15.87313 -1.7252,-23.78864 -1.14716,-8.54582 -2.11497,-17.11713 -3.26886,-25.6616 -1.25,-9.87762 -3.39193,-19.61455 -5.1661,-29.40625 -1.17429,-6.02077 -1.54155,-12.13222 -1.70713,-18.24916 -0.11574,-6.63367 -0.068,-13.26873 -0.0565,-19.90301 0.19184,-9.76625 1.7361,-19.43785 2.8408,-29.12762 0.58692,-5.19264 1.09816,-10.39286 1.21309,-15.61884 0.34876,-5.81712 -0.23819,-11.52597 -1.35333,-17.2265 -1.55658,-6.97126 -2.10668,-14.08735 -2.44468,-21.2035 -0.43062,-8.23284 -0.21079,-16.461233 0.45673,-24.672494 0.70783,-8.381826 1.82608,-16.715461 3.68479,-24.920383 0.90576,-3.728249 1.78213,-7.465043 2.15098,-11.288813 0.16078,-3.4921 0.13443,-6.990326 0.1341,-10.485382 2.8e-4,-2.764049 -0.0115,-5.528061 -0.012,-8.29211 0,0 -3.68017,-1.874376 -3.68017,-1.874376 v 0 c 0.008,2.76815 0.0134,5.53632 0.0355,8.304403 0.0159,3.480014 0.0547,6.964088 -0.13795,10.440253 -0.32795,3.825418 -1.13342,7.576524 -1.99375,11.314151 -1.7694,8.248174 -2.93433,16.602136 -3.62721,25.010764 -0.68535,8.214815 -0.99768,16.447747 -0.53974,24.687077 0.33828,7.12459 0.83561,14.25369 2.38213,21.23759 1.12107,5.66678 1.73235,11.32703 1.32179,17.11256 -0.13359,5.23527 -0.4919,10.45972 -1.04301,15.66835 -1.03232,9.70217 -2.54251,19.36872 -2.93645,29.12594 -0.0165,6.635 -0.0385,13.27045 0.0372,19.90516 0.13631,6.15195 0.49613,12.29575 1.74725,18.33945 1.86214,9.78003 4.00393,19.52562 5.22563,29.41231 1.0883,8.54604 2.06759,17.103 3.24719,25.63784 0.79667,7.91705 0.87087,15.87907 1.74282,23.79266 0.83981,9.07469 1.70023,18.15745 1.33404,27.28415 0.0106,5.96294 -0.0184,11.92926 0.25257,17.88764 0.42251,7.71392 1.03989,15.43759 2.4368,23.0443 0.22892,1.32757 1.04089,5.88619 1.19167,7.32331 0.37572,3.58153 0.0176,7.20017 0.1734,10.78969 0.0336,8.22608 0.0112,16.45329 -0.19022,24.67739 -0.26693,9.32271 -0.75856,18.63435 -1.19547,27.95019 -0.22723,9.69466 -0.6063,19.40507 -2.10167,29.00279 -1.20295,7.33435 -3.0934,14.64802 -3.18399,22.10289 -0.0809,4.61664 -0.22132,9.24459 -1.08797,13.79539 -1.39717,7.55507 -3.28116,15.02427 -5.90648,22.25288 -2.48116,7.59876 -4.3273,15.37968 -5.51237,23.29086 -0.22715,1.69855 -0.68758,4.87059 -0.77776,6.60149 -0.18491,3.54907 0.11706,7.12309 -0.0731,10.67439 z" />
  <rect
     style="fill:#00ff00;stroke-width:0.217245;fill-opacity:1"
     id="rect1-7"
     width="15.093463"
     height="27.723803"
     x="474.24008"
     y="418.68188" />
  <rect
     style="fill:#00ff00;fill-opacity:1;stroke-width:0.225896"
     id="rect1-3-3"
     width="16.319532"
     height="27.723803"
     x="421.84332"
     y="505.09451" />
  <rect
     style="fill:#00ff00;fill-opacity:1;stroke-width:0.225896"
     id="rect1-3-33"
     width="16.319532"
     height="27.723803"
     x="393.90668"
     y="447.8244" />
  <rect
     style="fill:#00ff00;fill-opacity:1;stroke-width:0.225896"
     id="rect1-3-3-3"
     width="16.319532"
     height="27.723803"
     x="381.33456"
     y="556.14801" />
  <rect
     style="fill:#00ff00;fill-opacity:1;stroke-width:0.225896"
     id="rect1-3-33-0"
     width="16.319532"
     height="27.723803"
     x="353.39792"
     y="498.87796" />
  <rect
     style="fill:#00ff00;fill-opacity:1;stroke-width:0.225896"
     id="rect1-3-3-7"
     width="16.319532"
     height="27.723803"
     x="467.58954"
     y="505.65201" />
  <rect
     style="fill:#00ff00;fill-opacity:1;stroke-width:0.225896"
     id="rect1-3-33-8"
     width="16.319532"
     height="27.723803"
     x="439.65289"
     y="448.3819" />
  <rect
     style="fill:#00ff00;fill-opacity:1;stroke-width:0.192658"
     id="rect1-9-2-1"
     width="24.959705"
     height="13.184921"
     x="214.1324"
     y="202.96191" />
  <rect
     style="fill:#00ff00;fill-opacity:1;stroke-width:0.192658"
     id="rect1-9-2-1-4"
     width="24.959705"
     height="13.184921"
     x="300.5983"
     y="25.142981" />
  <rect
     style="fill:#00ff00;stroke-width:0.217245;fill-opacity:1"
     id="rect1-7-2"
     width="15.093463"
     height="27.723803"
     x="580.72443"
     y="455.64435" />
  <rect
     style="fill:#00ff00;fill-opacity:1;stroke-width:0.217245"
     id="rect1-7-21"
     width="15.093463"
     height="27.723803"
     x="626.07629"
     y="50.147007" />
  <rect
     style="fill:#00ff00;fill-opacity:1;stroke-width:0.225896"
     id="rect1-3-33-0-2"
     width="16.319532"
     height="27.723803"
     x="689.67853"
     y="125.03534" />
  <rect
     style="fill:#00ff00;fill-opacity:1;stroke-width:0.217245"
     id="rect1-7-2-2"
     width="15.093463"
     height="27.723803"
     x="732.56061"
     y="87.109467" />
  <rect
     style="fill:#00ff00;fill-opacity:1;stroke-width:0.279366"
     id="rect1"
     width="29.192644"
     height="15.923261"
     x="205.67546"
     y="237.52197" />
  <rect
     style="fill:#00ff00;fill-opacity:1;stroke-width:0.279366"
     id="rect1-4"
     width="29.192644"
     height="15.923261"
     x="210.08353"
     y="272.10324" />
</svg>
