<?xml version="1.0" encoding="UTF-8" standalone="no"?>
<!-- Created with Inkscape (http://www.inkscape.org/) -->

<svg
   width="2857"
   height="2322"
   viewBox="0 0 798.14992 648.68888"
   version="1.1"
   id="svg1"
   sodipodi:docname="checkpoints.svg"
   inkscape:version="1.3.2 (091e20e, 2023-11-25)"
   xmlns:inkscape="http://www.inkscape.org/namespaces/inkscape"
   xmlns:sodipodi="http://sodipodi.sourceforge.net/DTD/sodipodi-0.dtd"
   xmlns="http://www.w3.org/2000/svg"
   xmlns:svg="http://www.w3.org/2000/svg">
  <sodipodi:namedview
     id="namedview1"
     pagecolor="#ffffff"
     bordercolor="#000000"
     borderopacity="0.25"
     inkscape:showpageshadow="2"
     inkscape:pageopacity="0.0"
     inkscape:pagecheckerboard="0"
     inkscape:deskcolor="#d1d1d1"
     inkscape:zoom="0.20926737"
     inkscape:cx="1285.4369"
     inkscape:cy="1177.9189"
     inkscape:window-width="1365"
     inkscape:window-height="699"
     inkscape:window-x="1366"
     inkscape:window-y="0"
     inkscape:window-maximized="1"
     inkscape:current-layer="svg1"
     showgrid="false" />
  <defs
     id="defs1" />
  <path
     style="fill:#000000;stroke-width:0.279366"
     id="path1"
     d="m 71.938576,597.70944 c -0.03507,-2.68387 -0.0252,-5.36811 -0.03673,-8.05218 -0.0492,-5.62445 -0.06291,-11.24866 -0.03221,-16.87325 0.03137,-3.73446 0.02693,-7.46903 0.03202,-11.20358 0.03405,-2.86328 -0.145969,-5.72854 -0.614975,-8.55316 -0.843954,-4.04749 -1.717726,-8.07732 -2.294257,-12.17292 -1.246017,-9.18602 -2.90792,-18.30574 -4.31239,-27.46781 -0.911732,-6.09184 -1.448227,-12.23214 -1.721892,-18.38363 -0.139996,-3.44796 -0.109182,-6.89957 -0.09152,-10.34943 -0.05103,-5.20787 -0.02831,-10.41624 -0.0145,-15.62424 0.04038,-4.264 -0.313276,-8.518 -0.457806,-12.77833 -0.133752,-4.36865 -0.138588,-8.73965 -0.169603,-13.10983 -0.0631,-4.89082 0.07232,-9.78185 -0.172886,-14.66828 -0.351024,-4.48006 -0.558197,-8.96185 -0.669315,-13.45459 -0.167385,-8.43385 -0.204228,-16.86946 -0.197129,-25.30476 0.02534,-9.76699 -0.06138,-19.5337 -0.04009,-29.30077 -0.0164,-11.10763 0.03689,-22.21496 -0.02053,-33.32252 -0.306185,-19.82292 -0.202085,-39.64877 -0.01439,-59.47218 0.01735,-7.71994 0.115574,-15.43951 0.134118,-23.15942 -0.07885,-11.12103 -0.160393,-22.24208 -0.171869,-33.36354 0.01919,-10.09771 0.105156,-20.19495 0.136694,-30.29257 -0.144276,-7.28367 1.241348,-14.49102 2.480886,-21.63935 1.034904,-4.77327 1.49463,-9.61775 1.832725,-14.47959 0.232723,-4.87511 1.07365,-9.50202 3.964718,-13.50143 2.263499,-3.21773 5.459466,-5.1213 8.917069,-6.81432 3.006735,-1.43363 6.077908,-2.72858 8.56509,-4.99476 1.256415,-1.51196 2.795394,-2.73875 4.165066,-4.13744 6.364781,-3.08792 13.01628,-5.5787 19.68932,-7.91448 4.96377,-1.74692 10.18037,-2.2771 15.3984,-2.5394 2.65433,-0.11014 5.31108,-0.0676 7.96649,-0.039 0.30085,-0.29235 3.4397,0.61889 3.26829,0.51952 -0.73575,-0.42651 -1.5734,-1.40778 -2.33469,-1.02875 -0.59455,0.296 0.84787,1.02916 1.18751,1.59989 0.39561,0.66479 0.67231,1.39348 1.00846,2.09022 2.517,6.68979 2.53139,14.00117 2.86081,21.05593 0.43323,8.98038 1.36084,17.92868 2.10517,26.88701 0.7628,7.95237 0.96896,15.93241 1.09229,23.91495 -0.11055,11.00071 0.64002,21.96603 1.51648,32.92308 0.99226,10.5126 1.20966,21.07364 1.34134,31.62535 0.006,10.35944 0.47944,20.7115 1.29301,31.03681 0.63599,5.93094 1.35469,11.84744 1.70139,17.80404 0.21135,4.38368 0.23794,8.77322 0.24878,13.16109 0.0282,7.74843 0.0367,15.49665 0.0284,23.24513 -0.0226,6.47994 -0.0388,12.95973 -0.0463,19.43963 -0.21983,7.61875 2.30646,8.10197 8.63434,11.49191 7.07906,1.43826 14.41865,1.07 21.60918,1.10858 6.96158,0.0232 13.92321,0.0101 20.8848,0.0143 2.78696,-0.007 5.57393,0 8.36087,0.009 0.29478,-0.28236 0.65349,-0.51043 0.88433,-0.84707 1.75733,-2.56279 2.6825,-7.1965 3.46092,-10.22947 0.81751,-3.94295 1.05527,-7.9646 1.76443,-11.93373 1.29938,-7.39039 1.43926,-14.90713 1.76593,-22.38474 0.46694,-10.19486 0.90235,-20.38336 0.97225,-30.58934 -0.0859,-11.37125 0.53254,-22.71884 0.9515,-34.07479 0.47948,-9.67691 0.47142,-19.36205 0.5366,-29.04749 0.0569,-10.86861 0.0297,-21.73773 0.031,-32.60657 0.0146,-10.81536 0.002,-21.63061 -0.009,-32.44598 0.002,-7.29631 0.043,-14.59243 0.12064,-21.8883 -0.11585,-5.92695 -0.042,-11.85207 0.13162,-17.77663 0.0836,-4.95685 0.16537,-9.91308 0.1491,-14.87072 0.0875,-5.795294 -0.15827,-11.592307 0.24564,-17.377114 0.91008,-8.903713 1.87597,-17.799998 2.69695,-26.712802 0.82079,-7.246343 1.2317,-14.529351 1.7833,-21.798795 0.19518,-2.452603 0.79602,-2.292585 -3.53501,-2.988802 -1.075,-0.172808 0.95633,1.486525 2.03224,2.29245 1.76526,0.877691 3.46632,1.898538 5.29578,2.633071 0.51693,0.207549 5.42482,1.03291 5.7111,1.078438 3.736,0.594185 7.48814,1.01317 11.24864,1.412885 7.78284,0.594885 15.42148,2.227385 23.16466,3.131505 8.28442,0.823686 16.61271,1.034806 24.93216,1.136965 8.36041,0.05857 16.72117,0.03485 25.08175,0.02829 7.91713,0.0228 15.83409,-0.02837 23.7512,-0.01592 7.29714,0.05616 14.59472,-0.05866 21.8906,0.09012 10.16829,0.700575 20.26281,2.200237 30.38453,3.379225 9.627,1.308653 19.3375,1.726769 29.03646,2.091574 5.87619,0.180996 11.75466,0.277718 17.63349,0.306091 3.82537,-0.01025 7.65068,-0.01749 11.47607,-0.0095 2.49169,0.01961 4.98334,2.8e-4 7.47501,-0.0096 6.99385,-0.06472 13.98804,-0.05317 20.98207,-0.03071 2.74617,0.04891 3.97951,0.50042 -2.40376,-2.396719 -0.43153,-0.195861 -3.01721,-0.05455 -3.67308,-0.104399 -1.4812,-0.266004 -4.75767,-2.023239 1.33076,1.120919 0.11234,0.05802 -0.53519,-0.366096 -0.86212,-1.116684 -0.27205,-1.395826 -0.22369,-2.842232 -0.31007,-4.258782 -0.41204,-7.129926 -0.48305,-14.272337 -0.53085,-21.412082 -0.0457,-4.825657 -0.0221,-9.651449 0.014,-14.4770434 -0.0431,-1.2421956 0.34552,-2.7881827 -0.69038,-3.7162835 -1.34565,0.2376364 -3.46123,-0.5263633 -4.03695,0.7129091 -1.14177,2.4576821 -0.0534,5.4196368 -0.0709,8.1295258 -0.0263,4.066517 -0.0314,8.13316 -0.0605,12.199658 -0.0821,11.4771 -0.29347,22.945964 -0.57359,34.419572 -0.33921,8.233711 -0.38033,16.537733 -2.05337,24.638488 -0.53256,1.895091 -1.42173,3.633443 -1.97691,5.528852 -0.38382,0.800575 -0.58366,1.67357 -0.91736,2.492689 -0.63262,1.55285 -3.00819,-0.97583 3.23149,2.149459 -0.50683,-3.657393 -0.33368,-7.424909 -0.34952,-11.113767 0.0284,-6.755957 0.0201,-13.511116 0.006,-20.266951 -0.0369,-4.871234 -0.49953,-10.334091 2.81708,-14.395163 0.45201,-0.553475 1.05589,-0.963186 1.58381,-1.44478 4.45626,-2.731215 9.8784,-2.576507 14.93241,-2.700775 6.73829,0.01017 13.35805,1.371647 19.92716,2.724535 3.87255,0.976187 7.82416,1.122385 11.7923,1.238339 5.59613,0.07633 11.19318,0.03093 16.78965,0.02185 5.63395,-0.01696 11.26791,0.0014 16.90186,0.0054 2.91829,-0.305152 6.12419,0.946276 8.77032,-0.582275 1.7328,-2.055243 4.41304,-2.520257 6.87957,-3.2279 5.96743,-1.350214 12.10955,-1.517558 18.19952,-1.704845 5.37612,-0.106894 10.75442,-0.167944 16.13112,-0.0824 8.53324,0.872053 16.84373,3.182059 25.1925,5.067928 6.55089,1.368937 13.12631,2.686753 19.76878,3.531242 4.94183,0.406632 9.91534,0.316757 14.87054,0.302506 8.64634,-0.02579 17.29246,-0.117596 25.9375,0.0572 9.27782,0.214975 18.53082,0.956925 27.80025,1.349692 9.66056,0.334485 19.32538,0.509525 28.99076,0.618333 4.97898,0.04437 9.95799,0.08548 14.93717,0.104916 1.0795,0.403073 7.23592,-0.259439 0.41799,-1.35155 -0.44057,-0.07057 0.58206,0.679922 0.82421,1.054676 0.25568,0.395672 0.44238,0.831866 0.66355,1.247801 1.89014,5.038684 1.67852,10.707029 1.82843,16.028278 0.0823,5.460192 0.0955,10.920875 0.12719,16.381581 0.0157,7.466893 -0.0128,14.933949 -0.0539,22.400759 -0.0148,1.53929 -0.0187,2.36704 -0.0455,3.82358 -0.0485,2.62427 -0.50314,1.16175 3.70317,3.0298 -0.38522,-3.49907 -5.80981,-3.70348 -8.61999,-3.89948 -5.62664,-0.24309 -11.26101,-0.23245 -16.89186,-0.24686 -1.30437,-0.67555 -2.65773,-1.26393 -3.91312,-2.02666 -0.43573,-0.26473 -0.72129,-0.72513 -1.12615,-1.03502 -1.43581,-1.09899 -2.92983,-2.11976 -4.38952,-3.18679 -3.31155,-2.42074 -6.58545,-4.8913 -9.88524,-7.327856 -3.69904,-2.422414 -7.3313,-5.458035 -11.83754,-6.024149 -0.31191,-0.01964 -0.66308,-0.211706 -0.93574,-0.05895 -2.16037,1.210375 -2.79369,9.551435 -3.01947,11.737575 -0.42958,5.23114 -0.65928,10.47796 -0.70364,15.72611 -0.0249,3.35962 -0.009,6.71935 0,10.07899 0,4.2833 0.038,8.56633 0.0589,12.84958 0.15134,11.61779 0.12354,23.23665 0.0731,34.85498 -0.0457,8.76909 -0.0145,17.53835 -0.0446,26.30749 0.17173,6.19175 0.1812,12.34177 -1.4415,18.34855 -1.23768,3.71018 -1.35339,7.60639 -1.54858,11.47565 -0.0476,4.07483 -0.37232,8.13206 -0.58927,12.19734 -0.43919,4.76793 -1.02259,9.49156 -1.28403,14.27865 -0.3953,7.97927 -0.65229,15.96504 -0.8698,23.95096 -0.0967,4.17747 -0.14228,8.35478 -0.14147,12.53313 -0.006,4.28221 0.0184,8.56431 0.034,12.8465 0.14862,12.18716 0.14884,24.37623 0.12892,36.56423 -0.008,9.89636 0.37287,19.7478 1.45494,29.58066 1.06696,9.83336 2.53464,19.61739 3.82392,29.42329 0.78926,7.68051 2.23753,15.26903 3.94292,22.79245 0.73197,2.75531 0.97353,5.59873 1.43452,8.40331 0.36848,2.17825 0.38362,4.39634 0.42947,6.59937 0.0794,5.25767 0.0994,10.51538 0.0955,15.77358 -0.17008,5.89564 0.28626,11.83167 -0.23235,17.71197 -0.31155,2.25527 -0.68677,4.57754 -3.06373,5.34431 -1.4933,0.30127 -3.03389,0.099 -4.54328,0.0308 -3.64707,-0.11728 -7.29577,-0.0723 -10.9439,-0.11032 -4.84268,-0.20662 -9.86275,-0.32245 -14.55849,-1.69623 -2.70879,-0.79245 -4.13618,-1.60253 -6.67216,-2.81605 -2.97933,-1.34934 -6.8038,-4.64765 -12.92701,-7.09875 -2.94651,-1.11873 -5.82356,-2.34741 -8.96004,-2.789 -3.61198,-0.33477 -7.24397,-0.30635 -10.86746,-0.30591 -2.73193,0.29401 -5.61862,0.49434 -8.20086,1.53434 -0.7974,0.32116 -3.24157,1.63974 -3.94896,2.01362 -3.63176,1.81618 -6.76807,4.31299 -9.28717,7.48277 -2.17805,3.92851 -4.42654,7.81768 -6.66636,11.71319 -1.72729,2.91835 -2.05323,6.16646 -2.23554,9.47438 -0.12805,3.99388 -0.0677,7.9908 -0.0593,11.98599 0.1255,8.20804 0.13485,16.41714 0.11119,24.62616 0.0767,6.14818 0.0517,12.28687 -0.78349,18.38496 -0.32451,1.89743 -0.62606,4.20058 -2.2722,5.44983 -4.46243,0.95484 -8.99429,1.52782 -13.52262,2.06197 -5.14425,0.61089 -10.31717,0.83684 -15.49246,0.94191 -4.85676,0.0929 -9.7126,-0.0572 -14.56374,0.20657 -6.37995,0.25863 -12.68407,1.19535 -18.9449,2.39327 -4.30855,0.52211 -8.28757,2.21622 -12.33967,3.64819 -4.80093,1.95752 -9.79984,3.31737 -14.854,4.43182 -5.75665,1.26352 -11.61781,1.64943 -17.48848,1.90603 -7.55292,0.244 -15.11118,0.25696 -22.66731,0.24595 -4.52937,-0.01 -9.05866,-0.0411 -13.588,-0.0514 -3.76999,-0.007 -7.53998,0 -11.30998,0.005 -4.9725,0.005 -9.945,0.0137 -14.91752,0.007 -4.65073,0.006 -9.30145,-0.005 -13.95218,-0.0106 -3.44408,-0.003 -6.88814,-0.0126 -10.33223,-0.004 -3.77262,-0.0134 -7.54837,0.0694 -11.32006,-0.0395 -0.28518,-0.0232 -0.57782,0 -0.85559,-0.0693 -0.20313,-0.0502 -0.74566,-0.37994 -0.56139,-0.28085 1.05802,0.56888 1.99079,1.54096 3.18271,1.69028 0.45375,0.0568 -0.25637,-0.88056 -0.32669,-1.33244 -0.15902,-1.02189 -0.19849,-2.65512 -0.24174,-3.67967 -0.0612,-3.50675 -0.0268,-7.01486 0.0151,-10.52172 -0.0395,-10.90049 -0.16988,-21.80039 -0.23769,-32.70093 -0.0254,-17.5683 0.0187,-35.13684 0.12105,-52.70486 0.0336,-5.85362 0.13695,-11.70654 0.1553,-17.56022 0.004,-3.50719 -0.003,-7.01433 -0.006,-10.52155 -0.0151,-2.66591 0.0308,-5.33165 0.0307,-7.99748 0,-1.96442 -0.004,-3.92887 -0.003,-5.89329 -0.0685,-5.14588 -0.0782,-10.29256 -0.0731,-15.43908 0.0976,-5.03605 -0.12686,-10.08124 0.11982,-15.1135 0.27144,-0.68249 0.26599,-1.33129 1.18058,-1.39675 2.1343,-0.15278 8.15582,2.26826 10.13522,2.94564 8.51338,3.22065 17.37341,5.28176 26.32713,6.80981 7.77155,1.37443 15.63781,1.60032 23.5017,1.2966 15.11669,-1.23975 30.04723,-4.1477 44.96855,-6.78643 7.99,-1.50874 15.87592,-3.51568 23.76937,-5.45547 6.8718,-2.19255 14.00427,-2.94731 21.16119,-3.4521 2.29724,-0.1073 7.10429,-0.45687 9.37001,-0.0472 8.33387,1.50698 18.56913,7.81578 26.01913,11.85924 2.41652,1.69221 9.21728,4.42941 10.53725,7.77066 0.0752,0.19047 -0.44226,-0.14963 -0.50973,-0.343 -0.33867,-0.97091 -0.4407,-2.00879 -0.66103,-3.01319 -10.65336,-13.33296 -21.46753,-26.60851 -30.7716,-40.93794 -3.1536,-4.69216 -4.89163,-9.10456 -5.26301,-14.69096 0.36837,-4.03176 1.359,-8.51138 4.58186,-11.23288 -0.24199,-0.90682 1.97903,0.60988 1.49195,0.43386 -0.99932,-0.36114 -1.85424,-1.45637 -2.90655,-1.30903 -0.59913,0.0839 0.59114,1.05609 0.86681,1.59462 0.74066,1.44684 1.52495,3.17187 2.20482,4.63229 3.33773,6.99436 4.73096,14.67073 6.29231,22.20362 2.08262,9.29391 3.97298,18.65054 6.40358,27.86228 0.83279,2.74332 0.93521,7.46392 5.78669,5.81412 0.71948,-0.24467 0.18449,-1.50919 0.24084,-2.26703 0.1016,-1.3663 0.15524,-2.73572 0.23288,-4.10356 0.43707,-9.86912 1.12551,-19.71846 2.0382,-29.55406 0.57237,-6.57953 1.38968,-13.13883 2.48946,-19.65086 0.91462,-6.45038 1.70576,-12.91757 2.51427,-19.38191 0.54203,-8.07557 1.6695,-16.04623 3.33055,-23.96174 1.17435,-6.82643 1.57845,-13.75455 1.92199,-20.66364 0.11987,-2.63686 0.17605,-5.27693 0.17396,-7.9165 -0.20067,-7.80789 -0.16133,-15.61985 -0.15496,-23.42985 2e-5,-5.72688 0.0805,-11.45334 0.0953,-17.18012 0.003,-0.55273 0.12795,-1.11913 0.006,-1.65819 -0.80988,-3.57315 -5.62859,-6.45788 -8.50581,-8.3304 -4.10577,-2.86233 -8.12733,-4.58175 -13.03767,-4.87519 -7.81525,-0.104 -15.632,-0.0429 -23.44778,-0.0302 -6.36688,-0.0196 -12.73341,0.009 -19.10015,0.0361 -7.25688,0.033 -14.51378,0.0117 -21.77055,-0.0339 -2.95765,0.008 -5.9153,-0.0327 -8.8729,-0.0214 -0.042,3e-5 -2.56173,0.002 -2.56327,0.002 -3.00015,1.18682 -3.17313,6.63235 -3.58489,9.13151 -0.96068,9.13388 -0.9126,18.33515 -0.96602,27.50817 -0.0441,6.37297 -0.0281,12.74607 -0.0562,19.11908 0.008,3.86135 0,7.7228 0.0215,11.5841 0.0112,6.6949 0.0561,13.38958 0.0775,20.08449 0.0312,7.52336 -0.0182,15.04679 -0.0666,22.56996 -0.2514,1.33227 0.62841,5.25611 -0.62195,6.18176 -1.05891,0.7839 -3.6371,0.93311 -4.56734,1.07361 -6.98472,0.63933 -14.00922,0.63226 -21.01687,0.57418 -3.66289,-0.0806 -7.32622,-0.0783 -10.98978,-0.0736 -6.11424,0.006 -12.22845,0.007 -18.34267,-0.0129 -3.84374,-0.0112 -7.68744,-0.0296 -11.53118,-0.0128 -4.84737,0.0182 -9.69483,0.0165 -14.5422,0 -1.3145,0.009 -2.682,0.0478 -3.94848,-0.37971 -0.22771,-0.0769 -0.86715,-0.41478 -0.65229,-0.30714 3.37259,1.68958 3.5396,2.60618 2.79838,0.75996 -0.79209,-9.32927 -0.50733,-18.75778 -0.4533,-28.12061 0.0569,-6.65146 0.146,-13.30239 0.16525,-19.95408 0.0103,-5.4035 0.0686,-10.80271 -0.11809,-16.20311 -0.5998,-11.28425 -1.274,-22.56997 -2.29301,-33.82513 -0.71906,-5.91582 -0.4566,-11.95296 -1.63038,-17.81087 -0.74644,-2.94225 -3.97463,-4.50641 -6.87949,-4.58538 -2.56933,-0.0365 -5.13897,0.0227 -7.70819,0.0494 -3.22121,0.0379 -6.44264,0.0388 -9.66404,0.041 -3.76575,-0.004 -7.53139,0.0132 -11.29716,0.0203 -4.2015,-0.009 -8.40301,-0.004 -12.60454,-0.0132 -5.72891,0.14771 -11.44556,-0.25189 -17.15405,-0.68248 -8.99487,-0.71546 -17.98821,-1.44986 -26.98191,-2.18006 -3.87101,-0.28406 -7.73797,-0.66458 -11.61717,-0.82511 -2.11193,-0.0316 -4.22478,-0.0148 -6.33707,-0.0151 -1.30184,8.4e-4 -2.60369,-0.004 -3.90551,0.008 -1.52031,-0.0606 -3.63001,0.91438 -4.27124,2.43868 -0.21497,0.51101 -0.27506,1.07411 -0.41256,1.61117 -0.55214,4.54976 -0.62034,9.14313 -0.67881,13.72114 0.18089,9.9039 0.14496,19.81057 0.1215,29.71571 -0.004,6.80432 -0.0291,13.60863 -0.0547,20.41291 -0.0427,5.99802 0.0439,11.99515 0.0342,17.99326 -0.0304,10.7821 -0.051,21.56349 -0.7104,32.32834 -0.30971,5.37283 -1.50704,10.63817 -2.11134,15.97485 -0.39989,3.53133 -0.48951,6.0449 -0.69666,9.64498 -0.4602,11.99918 -0.39187,24.00512 -1.09129,35.99508 -0.41229,6.09251 -0.93188,12.17373 -1.12448,18.27811 -0.10546,6.61551 -0.0919,13.23183 -0.0558,19.84784 0.0641,10.04839 0.038,20.09698 0.0221,30.14549 -0.0237,6.70063 -0.0476,13.4012 -0.0545,20.10186 0.0221,7.52454 0.0477,15.04911 0.0421,22.57376 0.0404,7.76072 -0.0131,15.52138 -0.0381,23.28204 -0.0392,6.62302 0.0235,13.24577 0.0543,19.86865 0.0509,10.15679 0.0454,20.31357 -0.0246,30.47025 -0.22804,1.93941 0.6138,6.63998 -1.23021,8.13498 -0.81344,0.65944 -2.39792,0.87324 -3.31973,1.07863 -5.89241,0.61774 -11.84086,0.42023 -17.75632,0.35499 -6.74339,-0.0792 -13.48737,-0.0961 -20.23112,-0.12778 -7.09296,-0.0145 -14.18589,0.0112 -21.27884,-0.006 -4.44553,-0.0148 -8.89101,-0.0385 -13.33656,-0.0329 -5.70465,0.0142 -11.40931,0.0265 -17.11397,0.0372 -7.7732,-0.0367 -15.54571,-0.13834 -23.31829,-0.23741 -8.96818,0.26417 -17.83672,-0.55496 -26.64,-2.21481 -7.81177,-1.68081 -15.23615,-4.73761 -23.0367,-6.43122 -6.40094,-1.18037 -12.92315,-1.30662 -19.411483,-1.39987 -6.11696,-0.19866 -11.445205,2.07938 -16.843327,4.64287 -3.616387,1.65433 -7.252294,3.25783 -10.956028,4.70621 0,0 3.367432,2.25616 3.367432,2.25616 v 0 c 3.673488,-1.49936 7.284503,-3.13776 10.899792,-4.7718 5.372996,-2.48846 10.704604,-4.68612 16.757924,-4.48243 6.47116,0.0994 12.97789,0.23709 19.35496,1.4586 7.75058,1.74643 15.16741,4.70017 22.94911,6.34857 8.83546,1.63385 17.73396,2.46625 26.73006,2.19811 7.78311,0.093 15.5658,0.22833 23.3496,0.25417 5.7385,0.0106 11.47699,0.0229 17.21548,0.0366 4.41438,0.005 8.82868,-0.0198 13.24303,-0.0351 7.09947,-0.0168 14.19893,0.006 21.29838,0.0215 6.73979,0.007 13.47939,0.0442 20.21877,0.12211 5.96123,0.0491 11.95866,0.31272 17.89272,-0.37734 1.17778,-0.29225 2.55841,-0.46531 3.52689,-1.32062 2.12695,-1.87841 0.86349,-6.10829 1.17867,-8.425 -0.0696,-10.16502 -0.0759,-20.33016 -0.0246,-30.4953 0.031,-6.60442 0.0936,-13.20873 0.0543,-19.81328 -0.0249,-7.77357 -0.0784,-15.54716 -0.038,-23.32082 -0.006,-7.51034 0.0201,-15.02058 0.0421,-22.53081 -0.007,-6.72002 -0.0321,-13.43996 -0.0592,-20.15993 -0.0209,-10.04411 -0.0556,-20.08831 0.004,-30.13238 0.0378,-6.59276 0.0173,-13.18679 0.16503,-19.77827 0.18245,-6.12595 0.60689,-12.23933 0.94984,-18.35779 0.59,-11.99392 0.50507,-24.00188 1.08204,-35.99636 0.56818,-8.58862 1.87824,-17.0553 2.85002,-25.60008 0.57597,-10.77606 0.5601,-21.56419 0.70573,-32.35217 0.0874,-5.97392 0.16014,-11.94845 0.11069,-17.92306 -0.0284,-6.82716 -0.0605,-13.65429 -0.0791,-20.48147 -0.0462,-9.87241 -0.12223,-19.74693 0.0626,-29.61825 0.004,-4.54597 0.0171,-9.11519 0.64403,-13.62592 0.62206,-2.40532 1.82697,-3.60614 4.44011,-3.55941 1.29983,0.009 2.59959,-0.003 3.8994,-0.0132 2.1098,-0.0137 4.22027,-0.0303 6.32952,0.0313 3.80966,0.13938 7.61206,0.42669 11.41418,0.69542 9.02541,0.67947 18.04504,1.43521 27.06047,2.23558 5.73444,0.40641 11.47827,0.78157 17.23076,0.70195 4.18983,-0.009 8.37968,-0.004 12.56951,-0.0123 3.78287,0.007 7.56563,0.0263 11.34851,0.0164 3.22668,-0.006 6.45339,-0.0141 9.68002,-0.0342 2.56922,-0.0283 5.14042,-0.095 7.70897,-0.009 2.0672,0.22312 3.01495,1.19344 -1.52218,-1.56247 -0.68828,-0.41805 2.34101,1.55413 1.35521,1.8973 1.37889,5.83715 1.14017,11.91452 1.81124,17.84708 1.19049,11.23165 1.99831,22.51304 2.31922,33.80347 0.0151,5.3814 0.0423,10.76278 0.0204,16.14422 -0.008,6.68496 0.0173,13.36983 0.0328,20.05482 0.006,9.35782 -0.17421,18.73847 0.0873,28.08451 1.0058,3.71527 5.73872,4.16069 8.86245,4.09012 4.84777,-0.0159 9.69564,-0.0176 14.5434,2e-4 3.83171,0.0162 7.66339,-0.003 11.49512,-0.0134 6.11522,-0.0182 12.23047,-0.0165 18.34566,0.0165 3.66741,0.0271 7.3346,0.0822 11.00215,0.0825 7.00486,-0.0184 14.02249,-0.0661 21.00629,-0.65799 1.44594,-0.2226 3.59371,-0.23853 4.88377,-1.30098 1.38119,-1.13747 0.39997,-4.87662 0.64042,-6.41781 -0.0481,-7.54571 -0.0974,-15.09168 -0.0661,-22.63753 0.0215,-6.66887 0.0676,-13.33749 0.0763,-20.00633 0.0181,-3.86042 0.007,-7.72113 -0.0137,-11.58152 -0.0736,-6.40142 -0.10739,-12.80334 -0.11988,-19.20512 0.0339,-9.13925 -0.003,-18.31246 1.02449,-27.40615 0.35525,-2.07223 0.81458,-7.73111 3.41196,-8.56923 0.81508,-0.263 1.75227,0.25306 2.56936,0.002 2.93832,0.0113 5.87667,-0.0286 8.81505,-0.0206 7.22212,-0.0463 14.44442,-0.0677 21.66671,-0.0419 6.36391,0.0182 12.72732,0.0223 19.09109,-0.0436 7.85456,-0.0295 15.71425,-0.11966 23.56531,0.15392 1.55806,0.13558 3.02144,0.29397 4.52409,0.74625 0.52136,0.15691 1.04003,0.32586 1.54616,0.52648 0.56138,0.22254 1.85158,1.31194 1.65295,0.74164 -0.22377,-0.64244 -1.17105,-0.69274 -1.75657,-1.03911 2.67267,1.69153 7.80136,4.69938 8.62954,7.939 0.1374,0.53742 0.004,1.1094 0.006,1.6641 0.0151,5.76029 0.0976,11.52023 0.10166,17.28061 0.0123,7.76552 0.0493,15.53286 -0.11071,23.29666 0.0246,2.65217 0.0358,5.30467 -0.0545,7.95603 -0.2364,6.90403 -0.60826,13.82687 -1.8344,20.63735 -1.57725,7.93437 -2.71019,15.91383 -3.35625,23.98222 -0.82626,6.45417 -1.5551,12.92164 -2.5276,19.35654 -1.09207,6.5388 -1.89866,13.12363 -2.39336,19.73556 -0.85897,9.83812 -1.54599,19.6814 -2.07564,29.54295 -0.11485,1.34177 -0.21098,2.68527 -0.34454,4.02531 -0.0715,0.71747 -0.6531,1.53492 -0.27051,2.14606 0.77857,1.24363 2.26044,1.87142 3.37963,2.82026 0.18165,0.15399 -0.4612,-0.22173 -0.56652,-0.43534 -0.69029,-1.40007 -0.67733,-3.08387 -1.37278,-4.47723 -2.57931,-9.18694 -4.53269,-18.55575 -6.50728,-27.88611 -1.58985,-7.51247 -2.81482,-15.2336 -6.12886,-22.22511 -1.54148,-3.38637 -3.83045,-10.48607 -8.82158,-9.19914 -3.18497,2.9403 -4.25651,7.40849 -4.7204,11.58342 0.37019,5.90039 2.03334,10.01859 5.39817,14.9796 9.44044,14.27253 20.37464,27.47561 30.82496,41.00583 2.50307,2.30444 4.81935,4.82994 7.50926,6.91328 0.25238,0.1955 0.87922,-0.11934 0.85198,-0.4374 -0.0572,-0.66696 -0.56443,-1.24556 -1.03684,-1.71981 -0.85394,-0.85726 -1.86312,-1.55356 -2.87887,-2.2111 -3.73675,-2.41895 -9.19593,-5.49058 -13.22004,-7.79449 -7.60941,-4.11289 -17.75265,-10.35039 -26.28243,-11.84095 -2.23108,-0.38988 -7.15002,-0.0421 -9.41616,0.0631 -7.20575,0.4987 -14.37829,1.26765 -21.30675,3.43324 -7.80533,1.93381 -15.55009,4.1279 -23.45247,5.64522 -14.94379,2.69848 -29.91995,5.59096 -45.08994,6.63311 -7.859,0.19008 -15.72221,-0.0416 -23.48947,-1.38429 -8.96073,-1.54272 -17.81352,-3.65073 -26.32886,-6.89057 -2.10505,-0.72518 -8.21421,-3.30754 -10.50887,-2.7799 -1.0162,0.23369 -1.03723,0.97675 -1.3328,1.77999 -0.18383,5.05488 0.028,10.1194 -0.0343,15.17664 0.005,5.12168 -0.004,10.24358 -0.0731,15.36462 0.003,1.96372 -0.003,3.92744 -0.003,5.89117 -1.6e-4,2.67624 0.0457,5.35241 0.0306,8.02871 -0.003,3.50515 -0.0106,7.01028 -0.006,10.51543 0.0187,5.90659 0.12253,11.8124 0.15617,17.71891 0.1025,17.60841 0.14725,35.21732 0.11683,52.82598 -0.072,10.80634 -0.17399,21.61201 -0.31119,32.41763 -0.0148,3.5151 -0.094,7.03081 -0.0109,10.54555 0.0193,0.52689 0.10982,5.01021 0.35454,5.24865 1.74965,1.70492 3.28725,2.6308 5.44005,2.70338 3.76265,0.04 7.5261,-0.0444 11.28889,0.007 3.43992,0.008 6.87982,-0.003 10.31971,-0.004 4.64103,-0.006 9.28204,-0.017 13.92307,-0.0106 4.97878,-0.007 9.95751,0 14.93624,0.007 3.77871,0.004 7.55739,0.0134 11.33608,0.0148 4.49528,0 8.99059,-0.0103 13.48585,-0.024 7.55636,-0.028 15.1144,-0.017 22.66768,-0.26638 5.90447,-0.25411 11.8053,-0.60837 17.58841,-1.92181 5.06855,-1.14828 10.07988,-2.52489 14.9161,-4.44903 4.01939,-1.43689 7.99111,-3.05297 12.25553,-3.63182 6.24347,-1.21136 12.53858,-2.12374 18.90498,-2.35047 4.86016,-0.18067 9.72357,-0.0859 14.58622,-0.17801 5.17317,-0.11072 10.34058,-0.35751 15.47947,-0.99882 4.61966,-0.54295 9.29167,-0.99913 13.80598,-2.15266 1.64254,-1.4341 2.04321,-3.71038 2.33853,-5.7709 0.77546,-6.14727 0.73428,-12.32685 0.6455,-18.51532 -0.031,-8.18203 -0.0196,-16.36417 0.0506,-24.54555 -0.0265,-3.9855 -0.0596,-7.97296 0.0627,-11.9572 0.17461,-3.24157 0.48076,-6.43593 2.13548,-9.31399 2.18361,-3.90054 4.42991,-7.76996 6.63621,-11.65556 2.50597,-3.10611 5.58289,-5.57573 9.17107,-7.35667 3.90121,-2.01722 7.57812,-3.33532 12.05086,-3.37754 3.62442,0.014 7.26247,-0.0142 10.86979,0.38514 3.08378,0.52473 5.94584,1.72187 8.85879,2.8311 0.66869,0.27674 1.33383,1.09819 2.00607,0.83016 0.56173,-0.22394 -2.04518,-1.27374 -1.48905,-1.03628 1.30719,0.55815 2.35327,1.59753 3.57332,2.32679 5.6798,3.39497 4.35488,2.64348 8.73875,4.92858 2.61753,1.22055 3.96114,1.97674 6.75623,2.76176 4.71573,1.32439 9.74017,1.37985 14.58762,1.6246 3.69616,0.0762 7.39396,0.0975 11.08856,0.23199 1.54719,0.0758 3.13265,0.27657 4.64396,-0.1636 2.44273,-1.0039 2.92075,-3.346 3.21059,-5.79819 0.49809,-5.90891 -0.0322,-11.86341 0.16329,-17.78618 0,-5.23457 0.0527,-10.46864 0.0587,-15.7029 -0.0274,-2.21689 -0.0504,-4.45249 -0.38145,-6.64753 -0.51805,-2.823 -0.73565,-5.70008 -1.51888,-8.47123 -1.84142,-7.51747 -3.35852,-15.12099 -4.11859,-22.83211 -1.22368,-9.81163 -2.8732,-19.56747 -3.8212,-29.41327 -1.03766,-9.84001 -1.57267,-19.7067 -1.59697,-29.60627 -0.0201,-12.14493 -0.0204,-24.29092 0.12493,-36.43506 0.0126,-4.27291 0.0303,-8.54576 0.0198,-12.8187 0.005,-4.18882 -0.003,-8.37792 0.058,-12.56643 0.11881,-7.98673 0.32091,-15.97522 0.84259,-23.94717 0.31963,-4.76473 0.94239,-9.47906 1.3784,-14.22997 0.27584,-4.07317 0.46967,-8.14166 0.54228,-12.22518 0.21042,-3.83254 0.4027,-7.68441 1.56557,-11.37289 1.5509,-6.0751 1.47491,-12.27186 1.35291,-18.51159 -0.0301,-8.78425 0,-17.56862 -0.0443,-26.35282 -0.05,-11.59369 -0.0785,-23.18791 0.0721,-34.78107 0.0196,-4.26742 0.0569,-8.53463 0.0366,-12.8021 -0.009,-3.36288 -0.032,-6.7257 -0.0297,-10.08861 0.0433,-5.249 0.12588,-10.50276 0.60103,-15.73413 0.19558,-1.73361 0.99281,-10.349069 2.83557,-11.115628 0.28193,-0.117283 0.60851,0.0521 0.91274,0.07816 1.92788,0.318665 5.34828,2.202866 0.95351,-0.418988 -1.31473,-0.784352 6.06328,3.607732 3.86034,2.488269 8.47215,6.181897 16.63867,13.064887 26.26176,17.403127 5.64301,0.01 11.29205,-0.009 16.92779,0.31254 0.65791,0.0604 1.31799,0.10081 1.97378,0.18114 0.48478,0.0594 1.71333,0.64635 1.44578,0.23775 -0.54918,-0.8387 -1.65098,-1.13974 -2.44072,-1.75725 -0.0596,-0.0466 1.08847,0.70855 0.61305,0.90424 1.25114,0.71976 2.49591,1.45073 3.75345,2.15929 0.14239,0.0802 -0.0232,-0.32616 -0.0277,-0.48954 -0.008,-0.30822 -0.0156,-0.61647 -0.0209,-0.92476 -0.0254,-1.48955 -0.0282,-2.28906 -0.0417,-3.86795 -0.0319,-7.47789 -0.0455,-14.956078 -0.0117,-22.433955 0.0437,-5.454708 0.12762,-10.910863 -0.065,-16.364171 -0.17757,-5.349901 0.0598,-11.027641 -1.64458,-16.138692 -2.03219,-4.15861 -4.58278,-5.426397 -8.9904,-5.06538 -4.9259,0.02377 -9.85197,0.04019 -14.7779,0.006 -9.65691,-0.07234 -19.31531,-0.207192 -28.96471,-0.616357 -9.25913,-0.433496 -18.50914,-1.072189 -27.77665,-1.320515 -8.68148,-0.167925 -17.36352,-0.118195 -26.04623,-0.126802 -4.97007,-0.01534 -9.95803,0.06517 -14.91157,-0.395217 -6.57947,-0.81418 -13.10025,-2.052907 -19.5811,-3.438621 -8.3934,-1.905986 -16.74998,-4.242752 -25.33809,-5.074579 -5.3775,-0.07945 -10.7567,-0.0941 -16.13216,0.105452 -6.13505,0.216372 -12.32179,0.364403 -18.33434,1.730566 -2.51466,0.711485 -5.19454,1.206327 -6.99361,3.262978 -2.59922,1.347264 -5.76749,0.08145 -8.57529,0.46641 -5.61412,0.01003 -11.22818,0.03946 -16.84233,0.03813 -5.61708,0.0048 -11.23503,0.02285 -16.85136,-0.08206 -3.94426,-0.116124 -7.86897,-0.358173 -11.72386,-1.273545 -6.57802,-1.309064 -13.20582,-2.616328 -19.94174,-2.623527 -5.15537,0.122234 -10.67269,-0.01738 -15.15677,2.901636 -0.54488,0.515674 -1.16814,0.959496 -1.63466,1.54702 -3.31169,4.170729 -2.89544,9.671926 -2.82277,14.638307 -0.0204,6.754633 -0.0434,13.508697 -0.0137,20.263509 -0.01,3.71979 -0.17799,7.452078 0.0453,11.165967 5.05633,3.047567 3.53666,3.017761 5.15623,-0.912224 0.54617,-1.91264 1.48369,-3.654048 1.94733,-5.586281 1.52165,-8.230862 1.34579,-16.636688 1.56085,-24.971247 0.13124,-11.498103 0.19586,-23.000778 0.42307,-34.497358 0.0795,-4.020185 0.17536,-8.040344 0.32468,-12.05854 0.0981,-2.638928 1.06514,-5.35116 0.41743,-7.9112435 -0.43922,-1.736023 -2.30598,-2.7402956 -3.45898,-4.1104433 1.32442,0.5259037 0.85324,2.2095701 0.92261,3.3591644 0.0475,4.8561954 0.11733,9.7121674 0.15748,14.5684454 0.10124,7.117071 0.10295,14.237588 0.38256,21.350187 0.0257,1.442707 -0.026,2.898854 0.17341,4.331677 0.77474,2.672314 4.11562,3.75069 6.65682,4.222566 1.45302,0.08348 0.95052,0.07062 2.47131,0.08899 0.41332,0.005 1.43901,0.37137 1.23999,0.0091 -1.59646,-2.905763 -2.03107,-2.442861 -4.19399,-2.396822 -7.02218,0.02263 -14.0445,0.03297 -21.06652,-0.03058 -2.49627,-0.0094 -4.99258,-0.0284 -7.48883,2.8e-4 -3.81875,0.01964 -7.63749,0.02861 -11.45632,0.02224 -5.82364,0.0092 -11.64787,-0.02394 -17.46923,-0.203091 -9.68485,-0.325931 -19.37057,-0.816853 -28.98474,-2.091664 -10.14536,-1.16405 -20.25689,-2.698249 -30.44913,-3.38158 -7.30146,-0.161638 -14.60418,-0.115292 -21.9071,-0.09174 -7.91744,0.01665 -15.83483,-0.02944 -23.75224,0.01556 -8.36351,0.01131 -16.72715,0.03548 -25.09046,-0.04153 -8.30741,-0.116336 -16.62646,-0.284685 -24.89546,-1.161737 -7.74323,-0.952167 -15.39661,-2.537499 -23.18455,-3.140227 -4.81742,-0.521756 -9.64553,-1.056374 -14.39618,-2.038511 -0.87924,-0.181773 -1.96454,-1.225444 -2.62246,-0.614506 -0.55273,0.513269 1.18747,0.930463 1.7812,1.395695 -1.80384,-1.150598 -6.48463,-7.559893 -5.97834,-2.695235 -0.32578,7.313218 -0.80701,14.619313 -1.5584,21.90227 -0.7813,8.90166 -1.8808,17.763278 -2.84551,26.645385 -0.37986,5.790721 -0.252,11.592397 -0.2715,17.392666 -0.0519,4.94829 -0.0557,9.89747 -0.1822,14.84467 -0.10794,5.924 -0.11176,11.84824 -0.16026,17.77285 0.0773,7.33719 0.119,14.67463 0.12255,22.01225 -0.009,10.81444 -0.0175,21.62874 0.004,32.44317 0.006,10.86684 -0.003,21.73359 -0.0382,32.60033 -0.0461,9.67379 -0.20419,19.34733 -0.5705,29.0148 -0.51767,11.37713 -0.72607,22.7544 -0.83962,34.14316 -0.24686,10.18352 -0.63671,20.3602 -1.04818,30.53813 -0.33367,7.43255 -0.65938,14.88898 -1.94598,22.23148 -0.70618,3.95725 -1.01189,7.95761 -1.76604,11.90143 -0.73994,3.04739 -1.52689,7.42986 -3.39359,9.98338 -0.18448,0.25236 -0.48737,0.39159 -0.73105,0.58737 -2.75918,0.0156 -5.5183,0.0391 -8.27749,0.0529 -6.9098,0.0607 -13.81984,0.11124 -20.72997,0.0935 -7.21338,-0.0455 -14.6339,0.3121 -21.69082,-1.37798 0.64768,0.43992 1.33128,0.83112 1.94303,1.31976 0.43742,0.34937 -0.98972,-0.53952 -1.41783,-0.90024 -2.23199,-1.88069 -2.50786,-4.82826 -2.37238,-7.54342 -0.007,-6.4941 -0.0209,-12.98808 -0.0376,-19.48218 -8.4e-4,-7.73451 0.0209,-15.46871 0.0554,-23.20311 0.002,-4.38902 0.10184,-8.78189 -0.20177,-13.16422 -0.37792,-5.98861 -1.10856,-11.93451 -1.8487,-17.88782 -0.90752,-10.32386 -1.31554,-20.67219 -1.35119,-31.03673 -0.18862,-10.55468 -0.25721,-21.13582 -1.32679,-31.64715 -0.94631,-10.94636 -1.60713,-21.9058 -1.53191,-32.89975 -0.0456,-7.98852 -0.0851,-15.97399 -1.03676,-23.9193 -0.78881,-8.94756 -1.57147,-17.89832 -2.09553,-26.86535 -0.33099,-7.06553 -0.24136,-14.39729 -2.65461,-21.12801 -0.34326,-0.76928 -1.29235,-3.20948 -2.07277,-3.83591 -2.80784,-2.25379 -4.77941,-3.5367 -8.09577,-3.46619 -2.64181,-0.0236 -5.28568,-0.0433 -7.9248,0.10256 -5.21785,0.32264 -10.43494,0.88338 -15.38289,2.69017 -6.73396,2.42767 -13.45848,4.9583 -19.955641,7.96531 -1.350954,1.40202 -2.863637,2.64194 -4.125317,4.13258 -2.444683,2.23528 -5.485391,3.5033 -8.431335,4.942 -3.520056,1.72581 -6.76792,3.67253 -9.044162,6.9724 -2.89451,4.1018 -3.782384,8.75338 -4.023173,13.72277 -0.36597,4.84965 -0.848559,9.6887 -1.767976,14.47019 -1.196199,7.17617 -2.65288,14.3992 -2.501503,21.70391 0.03158,10.14405 0.117415,20.28773 0.136694,30.43187 -0.01143,11.06309 -0.09276,22.12575 -0.17186,33.1884 0.01863,7.76548 0.116727,15.53061 0.134171,23.29612 0.185879,19.81844 0.293938,39.63938 -0.01478,59.4573 -0.05824,11.09973 -0.0057,22.19924 -0.02553,33.29902 0.01835,9.7545 -0.07725,19.50872 -0.03528,29.26311 0.03285,8.42862 -0.004,16.8585 0.142575,25.2861 0.08711,4.47676 0.105664,8.95274 0.551977,13.41101 0.309703,4.88196 0.21956,9.76891 0.20177,14.65852 -0.0011,4.37731 0.06751,8.75401 0.183114,13.12981 0.130151,4.25877 0.419449,8.51025 0.46995,12.76953 0.0064,5.19541 0.01911,10.39134 -0.05786,15.5863 -0.0032,3.46163 0.0049,6.92399 0.110132,10.38433 0.37201,6.18895 0.949212,12.36825 1.869037,18.50157 1.415296,9.13512 3.16956,18.21897 4.216366,27.40811 0.450233,4.0987 1.422559,8.08255 2.171194,12.13334 0.500818,2.80699 0.734502,5.65636 0.685515,8.50978 0.0051,3.74541 8.38e-4,7.49087 0.03202,11.2362 0.03047,5.61367 0.01738,11.22693 -0.03221,16.84043 -0.01154,2.67158 -0.0017,5.34336 -0.03673,8.01477 z" />
  <rect
     style="fill:#000000;stroke-width:0.279366"
     id="rect2-59"
     width="27.057663"
     height="23.578838"
     x="269.76343"
     y="32.513683" />
</svg>
